Coordinates
version=1
nRows=10
nColumns=63
inDegrees=yes

Units are S.I. units (second, meters, Newtons, ...)
If the header above contains a line with 'inDegrees', this indicates whether rotational values are in degrees (yes) or radians (no).

endheader
time	pelvis_tilt	pelvis_list	pelvis_rotation	pelvis_tx	pelvis_ty	pelvis_tz	hip_flexion_r	hip_adduction_r	hip_rotation_r	knee_angle_r	knee_angle_r_beta	ankle_angle_r	subtalar_angle_r	mtp_angle_r	hip_flexion_l	hip_adduction_l	hip_rotation_l	knee_angle_l	knee_angle_l_beta	ankle_angle_l	subtalar_angle_l	mtp_angle_l	L5_S1_Flex_Ext	L5_S1_Lat_Bending	L5_S1_axial_rotation	L4_L5_Flex_Ext	L4_L5_Lat_Bending	L4_L5_axial_rotation	L3_L4_Flex_Ext	L3_L4_Lat_Bending	L3_L4_axial_rotation	L2_L3_Flex_Ext	L2_L3_Lat_Bending	L2_L3_axial_rotation	L1_L2_Flex_Ext	L1_L2_Lat_Bending	L1_L2_axial_rotation	L1_T12_Flex_Ext	L1_T12_Lat_Bending	L1_T12_axial_rotation	Abs_r3	Abs_r2	Abs_r1	Abs_t1	Abs_t2	neck_flexion	neck_bending	neck_rotation	arm_flex_r	arm_add_r	arm_rot_r	elbow_flex_r	pro_sup_r	wrist_flex_r	wrist_dev_r	arm_flex_l	arm_add_l	arm_rot_l	elbow_flex_l	pro_sup_l	wrist_flex_l	wrist_dev_l
      2.10256410	     -1.41385367	     -2.36033470	    111.37749544	      0.10754245	      0.96488787	      0.53984351	      1.62140330	      0.45155687	    -25.32010094	      7.49409838	      0.13079669	     23.56657025	      8.59968956	      0.00000000	      0.89948944	     -0.17096021	     10.92804503	      1.91974217	      0.03350582	     13.50270201	    -11.67694677	      0.00000000	      0.06189492	     -0.50662563	      1.78370448	      0.11494505	     -0.67381209	      1.89518601	      0.10168716	     -1.23180956	      1.89518601	      0.07073970	     -1.23180956	      1.56074142	      0.05747562	     -1.03311099	      1.44925989	      0.03536676	     -0.78476311	      1.33777836	      0.44210922	     -5.73105049	      9.92042919	      0.00000000	      0.00000000	     15.00186591	      0.72268044	     -4.24509540	     57.52272913	    -14.00267728	     29.60332392	    134.06935818	     51.13846272	     -5.55043171	     17.40024619	      9.14130529	    -13.87342518	     55.43927191	     30.54002729	     82.56834600	    -10.39306342	     -6.41656722
      2.12820513	     -1.77478030	     -2.42782085	    112.31971344	      0.10654062	      0.96514827	      0.53957660	      1.41650044	     -0.07281278	    -25.45901608	      8.16081258	      0.14243305	     22.40447126	      7.41410182	      0.00000000	      0.72468527	      0.18698903	     12.51299957	      1.78679808	      0.03118551	     11.78830121	    -12.89688973	      0.00000000	      0.06047025	     -0.51724198	      1.83569756	      0.11229930	     -0.68793183	      1.95042866	      0.09934657	     -1.25762215	      1.95042866	      0.06911145	     -1.25762215	      1.60623537	      0.05615267	     -1.05475985	      1.49150427	      0.03455270	     -0.80120783	      1.37677317	      0.43193294	     -5.85114473	     10.20959912	      0.00000000	      0.00000000	     15.60240874	      0.90654343	     -3.06680471	     57.17555585	    -13.43008295	     26.36095175	    134.47063890	     63.65493583	     -8.56534005	     17.22663907	      6.86367360	    -14.87025718	     49.11648464	     35.11366388	     85.21780832	     -9.51841056	     -1.65991176
      2.15384615	     -2.02031328	     -2.59808213	    113.43789422	      0.10557452	      0.96504992	      0.53962173	      1.32508502	     -0.49222018	    -25.58479328	      8.68808401	      0.15163567	     21.37985878	      6.12091090	      0.00000000	      0.76178358	      0.47534419	     14.17491915	      1.69212312	      0.02953312	     10.15929111	    -14.31579711	      0.00000000	      0.06534810	     -0.53136088	      1.83377637	      0.12135797	     -0.70670997	      1.94838740	      0.10736040	     -1.29195084	      1.94838740	      0.07468635	     -1.29195084	      1.60455433	      0.06068225	     -1.08355110	      1.48994330	      0.03733991	     -0.82307800	      1.37533228	      0.46677498	     -6.01086053	     10.19891406	      0.00000000	      0.00000000	     16.28915117	      1.07727683	     -1.93959149	     57.05553593	    -13.19422861	     24.75142576	    134.97166814	     74.72743067	    -10.32125907	     17.72209493	      4.67139895	    -15.56410421	     43.60344971	     39.00866343	     86.69537620	     -7.72772675	      3.43727434
      2.17948718	     -2.16553900	     -2.76011088	    114.57619274	      0.10472566	      0.96475031	      0.54014796	      1.23609656	     -0.80608572	    -25.97821400	      8.99511865	      0.15699444	     20.82076696	      5.51600203	      0.00000000	      0.93948614	      0.67795054	     15.25315452	      1.70816406	      0.02981309	      9.34004075	    -14.79571243	      0.00000000	      0.06632792	     -0.54068372	      1.88048479	      0.12317758	     -0.71910935	      1.99801509	      0.10897014	     -1.31461840	      1.99801509	      0.07580618	     -1.31461840	      1.64542420	      0.06159211	     -1.10256225	      1.52789390	      0.03789977	     -0.83751908	      1.41036360	      0.47377371	     -6.11632240	     10.45869228	      0.00000000	      0.00000000	     16.94033003	      1.31043831	     -0.88316664	     57.46910125	    -13.59821741	     24.26271197	    135.32009711	     80.00358206	    -10.30758746	     18.09274902	      3.58402819	    -15.90133498	     41.17944345	     41.31599637	     86.87812707	     -6.65094804	      7.80084222
      2.20512821	     -2.12827938	     -2.89541242	    115.55059056	      0.10426006	      0.96441781	      0.54126923	      1.25010743	     -0.92524050	    -26.33932393	      9.14333068	      0.15958122	     20.74995925	      5.40955453	      0.00000000	      1.27040290	      0.70697132	     15.70916085	      1.76161469	      0.03074598	      9.37465709	    -14.49932279	      0.00000000	      0.06061100	     -0.53128972	      1.97852761	      0.11256068	     -0.70661533	      2.10218558	      0.09957780	     -1.29177783	      2.10218558	      0.06927231	     -1.29177783	      1.73121166	      0.05628337	     -1.08340600	      1.60755368	      0.03463312	     -0.82296778	      1.48389571	      0.43293828	     -6.01005558	     11.00397700	      0.00000000	      0.00000000	     17.55345681	      1.37980354	     -0.07112359	     58.12369012	    -14.54156716	     24.43987854	    135.43421962	     80.13075750	     -9.77325863	     18.12812842	      3.65729257	    -15.80970516	     41.39098267	     41.48880675	     86.66877232	     -6.41949135	      9.44035539
      2.23076923	     -1.95853371	     -3.09937237	    116.83387993	      0.10379463	      0.96414227	      0.54277089	      1.32159680	     -0.89538276	    -27.03090449	      8.99926542	      0.15706681	     21.01314968	      5.60967954	      0.00000000	      1.82040720	      0.64115060	     16.36618542	      1.81049512	      0.03159910	     10.02439743	    -13.79029159	      0.00000000	      0.04740393	     -0.51757775	      1.95777394	      0.08803385	     -0.68837841	      2.08013481	      0.07787992	     -1.25843854	      2.08013481	      0.05417796	     -1.25843854	      1.71305220	      0.04401929	     -1.05544455	      1.59069132	      0.02708661	     -0.80172794	      1.46833045	      0.33860156	     -5.85494304	     10.88855131	      0.00000000	      0.00000000	     17.99854874	      1.24577264	      0.51598354	     58.46411261	    -15.28550905	     24.51078332	    135.25721132	     79.23512746	     -8.61324136	     18.23962950	      4.03486210	    -15.61650065	     42.34464626	     40.67677226	     86.58287196	     -6.48311357	      9.60076834
      2.25641026	     -1.68725305	     -3.40010467	    118.20481399	      0.10338326	      0.96398358	      0.54462447	      1.46703125	     -0.80947499	    -28.16470883	      8.59842991	      0.15007091	     21.35231547	      6.58649679	      0.00000000	      2.54262346	      0.54287359	     16.81450309	      1.80783308	      0.03155264	     10.90611449	    -12.57135795	      0.00000000	      0.02822270	     -0.50016301	      1.80769876	      0.05241238	     -0.66521681	      1.92067993	      0.04636708	     -1.21609635	      1.92067993	      0.03225573	     -1.21609635	      1.58173641	      0.02620760	     -1.01993242	      1.46875524	      0.01612645	     -0.77475251	      1.35577407	      0.20159194	     -5.65794405	     10.05387818	      0.00000000	      0.00000000	     18.51496253	      0.94895374	      0.96620989	     58.79015751	    -15.49476361	     24.76411740	    134.68198366	     76.68956255	     -6.51608467	     18.10547279	      4.19130523	    -15.45041768	     43.78143209	     38.97249053	     86.16332334	     -8.12628956	      6.08543435
      2.28205128	     -1.33578513	     -3.81897166	    119.31016315	      0.10358974	      0.96354558	      0.54691329	      1.87038240	     -0.78997475	    -29.88934198	      8.30775291	      0.14499764	     21.67387112	      8.59156665	      0.00000000	      3.39128224	      0.42632862	     16.98042123	      1.66834406	      0.02911810	     11.74958258	    -11.23060292	      0.00000000	      0.00568947	     -0.47911101	      1.62728754	      0.01056592	     -0.63721764	      1.72899301	      0.00934724	     -1.16491051	      1.72899301	      0.00650250	     -1.16491051	      1.42387659	      0.00528325	     -0.97700317	      1.32217112	      0.00325097	     -0.74214295	      1.22046565	      0.04063934	     -5.41979956	      9.05048509	      0.00000000	      0.00000000	     19.18355645	      0.60764494	      1.87513967	     59.54250819	    -15.07402466	     25.81723618	    133.79891469	     71.04192552	     -2.96050008	     17.49544827	      3.93246737	    -15.47691181	     45.06962206	     37.50744345	     85.02754170	    -10.47229395	      2.25423870
      2.30769231	     -0.84050013	     -4.33588369	    120.60248275	      0.10395351	      0.96278028	      0.54935760	      2.39322021	     -0.58373015	    -30.94608147	      7.85332674	      0.13706641	     21.66575832	      9.24051989	      0.00000000	      4.46913671	      0.26342760	     17.86264611	      1.58362075	      0.02763940	     12.26679351	    -10.48070469	      0.00000000	     -0.00723790	     -0.45183030	      1.33807985	     -0.01344151	     -0.60093430	      1.42170984	     -0.01189115	     -1.09858020	      1.42170984	     -0.00827220	     -1.09858020	      1.17081987	     -0.00672112	     -0.92137235	      1.08718988	     -0.00413574	     -0.69988514	      1.00355989	     -0.05169962	     -5.11119475	      7.44199872	      0.00000000	      0.00000000	     19.76716908	      0.68226497	      3.55746180	     60.63894393	    -13.95997365	     28.36752739	    133.10219553	     66.20709460	     -0.78003405	     17.31402832	      3.01616209	    -15.23775045	     44.67930891	     35.46079927	     84.25219089	    -12.39473551	     -3.10448335
      2.33333333	     -0.34475810	     -4.96458244	    121.76045380	      0.10472041	      0.96171078	      0.55192868	      3.15406149	     -0.52255898	    -32.30631787	      7.68675406	      0.13415917	     21.78626854	     10.21038746	      0.00000000	      5.69961553	      0.21301752	     18.74852492	      1.58346840	      0.02763674	     12.67022946	     -9.91733997	      0.00000000	     -0.01599774	     -0.43440863	      1.09552589	     -0.02970941	     -0.57776348	      1.16399626	     -0.02628269	     -1.05622115	      1.16399626	     -0.01828382	     -1.05622115	      0.95858516	     -0.01485550	     -0.88584608	      0.89011479	     -0.00914111	     -0.67289897	      0.82164442	     -0.11427027	     -4.91411733	      6.09298637	      0.00000000	      0.00000000	     19.90498955	      0.78187474	      5.30586998	     61.89544665	    -12.69501386	     31.66583918	    132.54780493	     59.61751376	      0.77215005	     17.73757045	      2.62153717	    -14.81735026	     45.23604234	     32.60620244	     83.11913014	    -14.12044301	     -8.62157000
